<svg width="24" height="16" viewBox="0 0 24 16" fill="none" xmlns="http://www.w3.org/2000/svg">
<path d="M22.7333 6.6667H1.26667C0.56711 6.6667 0 7.2338 0 7.9334V8.0667C0 8.7663 0.56711 9.3334 1.26667 9.3334H22.7333C23.4329 9.3334 24 8.7663 24 8.0667V7.9334C24 7.2338 23.4329 6.6667 22.7333 6.6667Z" fill="#FF9564"/>
<path d="M22.7333 13.3333H1.26667C0.56711 13.3333 0 13.9004 0 14.6V14.7333C0 15.4329 0.56711 16 1.26667 16H22.7333C23.4329 16 24 15.4329 24 14.7333V14.6C24 13.9004 23.4329 13.3333 22.7333 13.3333Z" fill="#FF9564"/>
<path d="M22.7333 0H1.26667C0.56711 0 0 0.56711 0 1.26667V1.4C0 2.0996 0.56711 2.6667 1.26667 2.6667H22.7333C23.4329 2.6667 24 2.0996 24 1.4V1.26667C24 0.56711 23.4329 0 22.7333 0Z" fill="#FF9564"/>
</svg>
